{
  "asset": {
    "version": "2.0",
    "generator": "THREE.GLTFExporter"
  },
  "scenes": [
    {
      "nodes": [
        4
      ],
      "name": "AuxScene"
    }
  ],
  "scene": 0,
  "nodes": [
    {
      "name": "a",
      "mesh": 0
    },
    {
      "name": "b",
      "mesh": 1
    },
    {
      "name": "c",
      "mesh": 2
    },
    {
      "name": "d",
      "mesh": 3
    },
    {
      "children": [
        0,
        1,
        2,
        3
      ]
    }
  ],
  "bufferViews": [
    {
      "buffer": 0,
      "byteOffset": 0,
      "byteLength": 5184,
      "target": 34962,
      "byteStride": 12
    },
    {
      "buffer": 0,
      "byteOffset": 5184,
      "byteLength": 5184,
      "target": 34962,
      "byteStride": 12
    },
    {
      "buffer": 0,
      "byteOffset": 10368,
      "byteLength": 3456,
      "target": 34962,
      "byteStride": 8
    },
    {
      "buffer": 0,
      "byteOffset": 13824,
      "byteLength": 864,
      "target": 34963
    },
    {
      "buffer": 0,
      "byteOffset": 14688,
      "byteLength": 616464,
      "target": 34962,
      "byteStride": 12
    },
    {
      "buffer": 0,
      "byteOffset": 631152,
      "byteLength": 616464,
      "target": 34962,
      "byteStride": 12
    },
    {
      "buffer": 0,
      "byteOffset": 1247616,
      "byteLength": 410976,
      "target": 34962,
      "byteStride": 8
    },
    {
      "buffer": 0,
      "byteOffset": 1658592,
      "byteLength": 102744,
      "target": 34963
    },
    {
      "buffer": 0,
      "byteOffset": 1761336,
      "byteLength": 3888,
      "target": 34962,
      "byteStride": 12
    },
    {
      "buffer": 0,
      "byteOffset": 1765224,
      "byteLength": 3888,
      "target": 34962,
      "byteStride": 12
    },
    {
      "buffer": 0,
      "byteOffset": 1769112,
      "byteLength": 2592,
      "target": 34962,
      "byteStride": 8
    },
    {
      "buffer": 0,
      "byteOffset": 1771704,
      "byteLength": 648,
      "target": 34963
    },
    {
      "buffer": 0,
      "byteOffset": 1772352,
      "byteLength": 110448,
      "target": 34962,
      "byteStride": 12
    },
    {
      "buffer": 0,
      "byteOffset": 1882800,
      "byteLength": 110448,
      "target": 34962,
      "byteStride": 12
    },
    {
      "buffer": 0,
      "byteOffset": 1993248,
      "byteLength": 73632,
      "target": 34962,
      "byteStride": 8
    },
    {
      "buffer": 0,
      "byteOffset": 2066880,
      "byteLength": 18408,
      "target": 34963
    }
  ],
  "buffers": [
    {
      "byteLength": 2085288,
      "uri": "data:application/octet-stream;base64,"
    }
  ],
  "accessors": [
    {
      "bufferView": 0,
      "componentType": 5126,
      "count": 432,
      "max": [
        1124.25341796875,
        1046.9796142578125,
        -507.6170349121094
      ],
      "min": [
        -1127.46435546875,
        1037.58935546875,
        -520.982666015625
      ],
      "type": "VEC3"
    },
    {
      "bufferView": 1,
      "componentType": 5126,
      "count": 432,
      "max": [
        0.42667898535728455,
        0.9779660105705261,
        -0.18601000308990479
      ],
      "min": [
        -0.42667898535728455,
        -0.9769889712333679,
        -0.9727470278739929
      ],
      "type": "VEC3"
    },
    {
      "bufferView": 2,
      "componentType": 5126,
      "count": 432,
      "max": [
        0.9994999766349792,
        0.9965000152587891
      ],
      "min": [
        0.0005000000237487257,
        0.0005000000237487257
      ],
      "type": "VEC2"
    },
    {
      "bufferView": 3,
      "componentType": 5123,
      "count": 432,
      "max": [
        431
      ],
      "min": [
        0
      ],
      "type": "SCALAR"
    },
    {
      "bufferView": 4,
      "componentType": 5126,
      "count": 51372,
      "max": [
        1197.456298828125,
        1133.5418701171875,
        763.2106323242188
      ],
      "min": [
        -1200.1234130859375,
        135.86766052246094,
        -668.5001831054688
      ],
      "type": "VEC3"
    },
    {
      "bufferView": 5,
      "componentType": 5126,
      "count": 51372,
      "max": [
        1,
        1,
        0.9999690055847168
      ],
      "min": [
        -1,
        -1,
        -1
      ],
      "type": "VEC3"
    },
    {
      "bufferView": 6,
      "componentType": 5126,
      "count": 51372,
      "max": [
        0.9929999709129333,
        0.9994999766349792
      ],
      "min": [
        0.0005000000237487257,
        0.0005000000237487257
      ],
      "type": "VEC2"
    },
    {
      "bufferView": 7,
      "componentType": 5123,
      "count": 51372,
      "max": [
        51371
      ],
      "min": [
        0
      ],
      "type": "SCALAR"
    },
    {
      "bufferView": 8,
      "componentType": 5126,
      "count": 324,
      "max": [
        542.64111328125,
        144.11715698242188,
        487.8935241699219
      ],
      "min": [
        -625.650390625,
        -0.008054999634623528,
        392.98614501953125
      ],
      "type": "VEC3"
    },
    {
      "bufferView": 9,
      "componentType": 5126,
      "count": 324,
      "max": [
        0.9882500171661377,
        -0.12640799582004547,
        0.9878230094909668
      ],
      "min": [
        -0.9881889820098877,
        -0.953245997428894,
        -0.9880669713020325
      ],
      "type": "VEC3"
    },
    {
      "bufferView": 10,
      "componentType": 5126,
      "count": 324,
      "max": [
        0.8722000122070312,
        0.9994999766349792
      ],
      "min": [
        0.0005000000237487257,
        0.0005000000237487257
      ],
      "type": "VEC2"
    },
    {
      "bufferView": 11,
      "componentType": 5123,
      "count": 324,
      "max": [
        323
      ],
      "min": [
        0
      ],
      "type": "SCALAR"
    },
    {
      "bufferView": 12,
      "componentType": 5126,
      "count": 9204,
      "max": [
        1182.715576171875,
        1043.1248779296875,
        729.2238159179688
      ],
      "min": [
        -1175.8924560546875,
        0.0008140000281855464,
        -653.1260986328125
      ],
      "type": "VEC3"
    },
    {
      "bufferView": 13,
      "componentType": 5126,
      "count": 9204,
      "max": [
        0.9997249841690063,
        1,
        0.9999390244483948
      ],
      "min": [
        -0.9997249841690063,
        -1,
        -0.9998469948768616
      ],
      "type": "VEC3"
    },
    {
      "bufferView": 14,
      "componentType": 5126,
      "count": 9204,
      "max": [
        0.9994999766349792,
        0.9922999739646912
      ],
      "min": [
        0.0005000000237487257,
        0.0005000000237487257
      ],
      "type": "VEC2"
    },
    {
      "bufferView": 15,
      "componentType": 5123,
      "count": 9204,
      "max": [
        9203
      ],
      "min": [
        0
      ],
      "type": "SCALAR"
    }
  ],
  "materials": [
    {
      "pbrMetallicRoughness": {
        "metallicFactor": 0.5,
        "roughnessFactor": 0.5
      },
      "name": "Material__zone4_d"
    },
    {
      "pbrMetallicRoughness": {
        "metallicFactor": 0.5,
        "roughnessFactor": 0.5
      },
      "name": "Material__zone1_a"
    },
    {
      "pbrMetallicRoughness": {
        "metallicFactor": 0.5,
        "roughnessFactor": 0.5
      },
      "name": "Material__zone3_c"
    },
    {
      "pbrMetallicRoughness": {
        "metallicFactor": 0.5,
        "roughnessFactor": 0.5
      },
      "name": "Material__zone2_b"
    }
  ],
  "meshes": [
    {
      "primitives": [
        {
          "mode": 4,
          "attributes": {
            "POSITION": 0,
            "NORMAL": 1,
            "TEXCOORD_0": 2
          },
          "indices": 3,
          "material": 0
        }
      ]
    },
    {
      "primitives": [
        {
          "mode": 4,
          "attributes": {
            "POSITION": 4,
            "NORMAL": 5,
            "TEXCOORD_0": 6
          },
          "indices": 7,
          "material": 1
        }
      ]
    },
    {
      "primitives": [
        {
          "mode": 4,
          "attributes": {
            "POSITION": 8,
            "NORMAL": 9,
            "TEXCOORD_0": 10
          },
          "indices": 11,
          "material": 2
        }
      ]
    },
    {
      "primitives": [
        {
          "mode": 4,
          "attributes": {
            "POSITION": 12,
            "NORMAL": 13,
            "TEXCOORD_0": 14
          },
          "indices": 15,
          "material": 3
        }
      ]
    }
  ]
}